<svg width="24" height="24" viewBox="0 0 24 24" fill="none" xmlns="http://www.w3.org/2000/svg">
<path fillRule="evenodd" clipRule="evenodd" d="M13.6496 12.0001L18.6579 6.99175C19.114 6.53559 19.114 5.79828 18.6579 5.34212C18.2017 4.88596 17.4644 4.88596 17.0083 5.34212L12 10.3505L6.99171 5.34212C6.53556 4.88596 5.79826 4.88596 5.34211 5.34212C4.88596 5.79828 4.88596 6.53559 5.34211 6.99175L10.3504 12.0001L5.34211 17.0085C4.88596 17.4647 4.88596 18.202 5.34211 18.6582C5.5696 18.8857 5.86826 19 6.16691 19C6.46556 19 6.76422 18.8857 6.99171 18.6582L12 13.6498L17.0083 18.6582C17.2358 18.8857 17.5344 19 17.8331 19C18.1317 19 18.4304 18.8857 18.6579 18.6582C19.114 18.202 19.114 17.4647 18.6579 17.0085L13.6496 12.0001Z" fill="#57627B"/>
<mask id="mask0_1_629" style="mask-type:alpha" maskUnits="userSpaceOnUse" x="5" y="5" width="14" height="14">
<path fillRule="evenodd" clipRule="evenodd" d="M13.6496 12.0001L18.6579 6.99175C19.114 6.53559 19.114 5.79828 18.6579 5.34212C18.2017 4.88596 17.4644 4.88596 17.0083 5.34212L12 10.3505L6.99171 5.34212C6.53556 4.88596 5.79826 4.88596 5.34211 5.34212C4.88596 5.79828 4.88596 6.53559 5.34211 6.99175L10.3504 12.0001L5.34211 17.0085C4.88596 17.4647 4.88596 18.202 5.34211 18.6582C5.5696 18.8857 5.86826 19 6.16691 19C6.46556 19 6.76422 18.8857 6.99171 18.6582L12 13.6498L17.0083 18.6582C17.2358 18.8857 17.5344 19 17.8331 19C18.1317 19 18.4304 18.8857 18.6579 18.6582C19.114 18.202 19.114 17.4647 18.6579 17.0085L13.6496 12.0001Z" fill="white"/>
</mask>
<g mask="url(#mask0_1_629)">
</g>
</svg>
