<svg width="24" height="24" viewBox="0 0 24 24" fill="none" xmlns="http://www.w3.org/2000/svg">
<path fill-rule="evenodd" clip-rule="evenodd" d="M17.7603 15.54L12.0003 18.847L6.2403 15.54L7.9343 14.819L11.5023 16.867C11.6563 16.956 11.8283 17 12.0003 17C12.1723 17 12.3433 16.956 12.4983 16.867L16.0663 14.818L17.7603 15.54ZM11.5023 12.867C11.6563 12.956 11.8283 13 12.0003 13C12.1723 13 12.3433 12.956 12.4983 12.867L16.0663 10.818L17.7603 11.54L12.0003 14.847L6.2403 11.54L7.9343 10.818L11.5023 12.867ZM12.0003 5.087L17.7603 7.54L12.0003 10.847L6.2403 7.54L12.0003 5.087ZM20.9983 11.348C20.9753 10.969 20.7403 10.636 20.3913 10.487L18.2393 9.571L20.4983 8.274C20.8273 8.086 21.0203 7.727 20.9983 7.348C20.9753 6.97 20.7403 6.636 20.3913 6.487L12.3913 3.08C12.1413 2.973 11.8583 2.973 11.6083 3.08L3.6083 6.487C3.2593 6.636 3.0243 6.97 3.0023 7.348C2.9793 7.727 3.1733 8.086 3.5023 8.274L5.7603 9.571L3.6083 10.487C3.2593 10.636 3.0243 10.969 3.0023 11.348C2.9793 11.727 3.1733 12.086 3.5023 12.274L5.7603 13.571L3.6083 14.487C3.2593 14.636 3.0243 14.969 3.0023 15.348C2.9793 15.727 3.1733 16.086 3.5023 16.274L11.5023 20.867C11.6563 20.956 11.8283 21 12.0003 21C12.1723 21 12.3433 20.956 12.4983 20.867L20.4983 16.274C20.8273 16.086 21.0203 15.727 20.9983 15.348C20.9753 14.97 20.7403 14.636 20.3923 14.487L18.2403 13.57L20.4983 12.274C20.8273 12.086 21.0203 11.727 20.9983 11.348Z" fill="#57627B"/>
<mask id="mask0_1_361" style="mask-type:alpha" maskUnits="userSpaceOnUse" x="3" y="2" width="18" height="19">
<path fill-rule="evenodd" clip-rule="evenodd" d="M17.7603 15.54L12.0003 18.847L6.2403 15.54L7.9343 14.819L11.5023 16.867C11.6563 16.956 11.8283 17 12.0003 17C12.1723 17 12.3433 16.956 12.4983 16.867L16.0663 14.818L17.7603 15.54ZM11.5023 12.867C11.6563 12.956 11.8283 13 12.0003 13C12.1723 13 12.3433 12.956 12.4983 12.867L16.0663 10.818L17.7603 11.54L12.0003 14.847L6.2403 11.54L7.9343 10.818L11.5023 12.867ZM12.0003 5.087L17.7603 7.54L12.0003 10.847L6.2403 7.54L12.0003 5.087ZM20.9983 11.348C20.9753 10.969 20.7403 10.636 20.3913 10.487L18.2393 9.571L20.4983 8.274C20.8273 8.086 21.0203 7.727 20.9983 7.348C20.9753 6.97 20.7403 6.636 20.3913 6.487L12.3913 3.08C12.1413 2.973 11.8583 2.973 11.6083 3.08L3.6083 6.487C3.2593 6.636 3.0243 6.97 3.0023 7.348C2.9793 7.727 3.1733 8.086 3.5023 8.274L5.7603 9.571L3.6083 10.487C3.2593 10.636 3.0243 10.969 3.0023 11.348C2.9793 11.727 3.1733 12.086 3.5023 12.274L5.7603 13.571L3.6083 14.487C3.2593 14.636 3.0243 14.969 3.0023 15.348C2.9793 15.727 3.1733 16.086 3.5023 16.274L11.5023 20.867C11.6563 20.956 11.8283 21 12.0003 21C12.1723 21 12.3433 20.956 12.4983 20.867L20.4983 16.274C20.8273 16.086 21.0203 15.727 20.9983 15.348C20.9753 14.97 20.7403 14.636 20.3923 14.487L18.2403 13.57L20.4983 12.274C20.8273 12.086 21.0203 11.727 20.9983 11.348Z" fill="white"/>
</mask>
<g mask="url(#mask0_1_361)">
</g>
</svg>
