<svg width="32" height="32" viewBox="0 0 32 32" fill="none" xmlns="http://www.w3.org/2000/svg">
<path fill-rule="evenodd" clip-rule="evenodd" d="M7.8856 6.66667H23.8803C26.5189 6.66667 28.6669 8.77733 28.6669 11.372V14.6667C28.6669 15.404 28.0709 16 27.3336 16C26.5963 16 26.0003 15.404 26.0003 14.6667V11.372C26.0003 10.2493 25.0496 9.33333 23.8803 9.33333H7.8856L9.6096 11.0573C10.1296 11.5787 10.1296 12.4213 9.6096 12.9427C9.3496 13.2027 9.00827 13.3333 8.66693 13.3333C8.3256 13.3333 7.98427 13.2027 7.72427 12.9427L3.72427 8.94267C3.20293 8.42133 3.20293 7.57867 3.72427 7.05733L7.72427 3.05733C8.24427 2.536 9.08827 2.536 9.6096 3.05733C10.1296 3.57867 10.1296 4.42133 9.6096 4.94267L7.8856 6.66667ZM22.3907 19.0573C22.912 18.536 23.7547 18.536 24.276 19.0573L28.276 23.0573C28.7973 23.5787 28.7973 24.4213 28.276 24.9427L24.276 28.9427C24.016 29.2027 23.6747 29.3333 23.3333 29.3333C22.992 29.3333 22.6507 29.2027 22.3907 28.9427C21.8693 28.4213 21.8693 27.5787 22.3907 27.0573L24.1147 25.3333H8.12C5.48 25.3333 3.33333 23.2227 3.33333 20.628V17.3333C3.33333 16.596 3.93067 16 4.66667 16C5.40267 16 6 16.596 6 17.3333V20.628C6 21.752 6.95067 22.6667 8.12 22.6667H24.1147L22.3907 20.9427C21.8693 20.4213 21.8693 19.5787 22.3907 19.0573Z" fill="url(#paint0_linear_1_218)"/>
<mask id="mask0_1_218" style="mask-type:alpha" maskUnits="userSpaceOnUse" x="3" y="2" width="26" height="28">
<path fill-rule="evenodd" clip-rule="evenodd" d="M7.8856 6.66667H23.8803C26.5189 6.66667 28.6669 8.77733 28.6669 11.372V14.6667C28.6669 15.404 28.0709 16 27.3336 16C26.5963 16 26.0003 15.404 26.0003 14.6667V11.372C26.0003 10.2493 25.0496 9.33333 23.8803 9.33333H7.8856L9.6096 11.0573C10.1296 11.5787 10.1296 12.4213 9.6096 12.9427C9.3496 13.2027 9.00827 13.3333 8.66693 13.3333C8.3256 13.3333 7.98427 13.2027 7.72427 12.9427L3.72427 8.94267C3.20293 8.42133 3.20293 7.57867 3.72427 7.05733L7.72427 3.05733C8.24427 2.536 9.08827 2.536 9.6096 3.05733C10.1296 3.57867 10.1296 4.42133 9.6096 4.94267L7.8856 6.66667ZM22.3907 19.0573C22.912 18.536 23.7547 18.536 24.276 19.0573L28.276 23.0573C28.7973 23.5787 28.7973 24.4213 28.276 24.9427L24.276 28.9427C24.016 29.2027 23.6747 29.3333 23.3333 29.3333C22.992 29.3333 22.6507 29.2027 22.3907 28.9427C21.8693 28.4213 21.8693 27.5787 22.3907 27.0573L24.1147 25.3333H8.12C5.48 25.3333 3.33333 23.2227 3.33333 20.628V17.3333C3.33333 16.596 3.93067 16 4.66667 16C5.40267 16 6 16.596 6 17.3333V20.628C6 21.752 6.95067 22.6667 8.12 22.6667H24.1147L22.3907 20.9427C21.8693 20.4213 21.8693 19.5787 22.3907 19.0573Z" fill="white"/>
</mask>
<g mask="url(#mask0_1_218)">
</g>
<defs>
<linearGradient id="paint0_linear_1_218" x1="28.667" y1="2.66633" x2="-1.24211" y2="9.60164" gradientUnits="userSpaceOnUse">
<stop stop-color="#1C94F4"/>
<stop offset="1" stop-color="#1273EA"/>
</linearGradient>
</defs>
</svg>
