<svg width="30" height="40" viewBox="0 0 30 40" fill="none" xmlns="http://www.w3.org/2000/svg">
<path fill-rule="evenodd" clip-rule="evenodd" d="M26.0432 0H3.96537C2.25403 0 0.866716 1.38731 0.866716 3.09865V27.3447C0.866716 28.5114 1.39262 29.616 2.2983 30.3515L13.5393 39.4801C14.3929 40.1733 15.6157 40.1733 16.4693 39.4801L27.7103 30.3515C28.616 29.616 29.1419 28.5114 29.1419 27.3447V3.09865C29.1419 1.38731 27.7546 0 26.0432 0ZM24.4938 6.97199C24.4938 5.68848 23.4533 4.648 22.1698 4.648H7.83854C6.55504 4.648 5.51455 5.68848 5.51455 6.97199V24.8707C5.51455 25.5378 5.80121 26.1727 6.30159 26.6139L12.1393 31.761L12.1394 18.9318H15.545C16.8285 18.9318 17.869 19.9723 17.869 21.2558L17.8689 31.761L23.7068 26.6139C24.2071 26.1727 24.4938 25.5378 24.4938 24.8707V20.1817L24.4931 20.1195C24.4605 18.5909 23.2271 17.3577 21.6983 17.3255L21.637 17.3249L21.6992 17.3242C23.2278 17.2916 24.461 16.0582 24.4931 14.5294L24.4938 14.4681V6.97199ZM12.1394 7.86186H17.869V12.6798C17.869 13.9633 16.8285 15.0038 15.545 15.0038H12.1394V7.86186Z" fill="white"/>
</svg>
