<svg width="336" height="205" viewBox="0 0 336 205" fill="none" xmlns="http://www.w3.org/2000/svg">
<path fillRule="evenodd" clipRule="evenodd" d="M324 148.806C324 149.48 329.201 154.612 330 154.612C330.799 154.612 336 149.48 336 148.806C336 148.132 330.799 143 330 143C329.201 143 324 148.132 324 148.806Z" fill="#E9F5FE"/>
<path fillRule="evenodd" clipRule="evenodd" d="M82 5.80579C82 6.47992 87.2012 11.6122 88 11.6122C88.7988 11.6122 94 6.47992 94 5.80579C94 5.13223 88.7988 0 88 0C87.2012 0 82 5.13223 82 5.80579Z" fill="#E9F5FE"/>
<path fillRule="evenodd" clipRule="evenodd" d="M40 166.806C40 167.48 45.2012 172.612 46 172.612C46.7988 172.612 52 167.48 52 166.806C52 166.132 46.7988 161 46 161C45.2012 161 40 166.132 40 166.806Z" fill="#E9F5FE"/>
<path fillRule="evenodd" clipRule="evenodd" d="M0 43.8058C0 44.4799 5.20124 49.6122 6 49.6122C6.79876 49.6122 12 44.4799 12 43.8058C12 43.1322 6.79876 38 6 38C5.20124 38 0 43.1322 0 43.8058Z" fill="#FBEBFF"/>
<path fillRule="evenodd" clipRule="evenodd" d="M66 116.903C66 117.24 68.6006 119.806 69 119.806C69.3994 119.806 72 117.24 72 116.903C72 116.566 69.3994 114 69 114C68.6006 114 66 116.566 66 116.903Z" fill="#FFC729"/>
<path fillRule="evenodd" clipRule="evenodd" d="M282 36.9029C282 37.24 284.601 39.8061 285 39.8061C285.399 39.8061 288 37.24 288 36.9029C288 36.5661 285.399 34 285 34C284.601 34 282 36.5661 282 36.9029Z" fill="#EC9FFF"/>
<path fillRule="evenodd" clipRule="evenodd" d="M278 199.838C278 200.4 282.334 204.677 283 204.677C283.666 204.677 288 200.4 288 199.838C288 199.277 283.666 195 283 195C282.334 195 278 199.277 278 199.838Z" fill="#EC9FFF"/>
<path fillRule="evenodd" clipRule="evenodd" d="M238 4.83816C238 5.39994 242.334 9.6768 243 9.6768C243.666 9.6768 248 5.39994 248 4.83816C248 4.27686 243.666 0 243 0C242.334 0 238 4.27686 238 4.83816Z" fill="#FFC729"/>
</svg>
