<svg width="333" height="343" viewBox="0 0 333 343" fill="none" xmlns="http://www.w3.org/2000/svg">
<path fillRule="evenodd" clipRule="evenodd" d="M321 261.806C321 262.48 326.201 267.612 327 267.612C327.799 267.612 333 262.48 333 261.806C333 261.132 327.799 256 327 256C326.201 256 321 261.132 321 261.806Z" fill="#E9F5FE"/>
<path fillRule="evenodd" clipRule="evenodd" d="M232 5.80579C232 6.47992 237.201 11.6122 238 11.6122C238.799 11.6122 244 6.47992 244 5.80579C244 5.13223 238.799 0 238 0C237.201 0 232 5.13223 232 5.80579Z" fill="#E9F5FE"/>
<path fillRule="evenodd" clipRule="evenodd" d="M26 336.806C26 337.48 31.2012 342.612 32 342.612C32.7988 342.612 38 337.48 38 336.806C38 336.132 32.7988 331 32 331C31.2012 331 26 336.132 26 336.806Z" fill="#E9F5FE"/>
<path fillRule="evenodd" clipRule="evenodd" d="M0 225.806C0 226.48 5.20124 231.612 6 231.612C6.79876 231.612 12 226.48 12 225.806C12 225.132 6.79876 220 6 220C5.20124 220 0 225.132 0 225.806Z" fill="#FBEBFF"/>
<path fillRule="evenodd" clipRule="evenodd" d="M55 315.903C55 316.24 57.6006 318.806 58 318.806C58.3994 318.806 61 316.24 61 315.903C61 315.566 58.3994 313 58 313C57.6006 313 55 315.566 55 315.903Z" fill="#FFC729"/>
<path fillRule="evenodd" clipRule="evenodd" d="M255 27.9029C255 28.24 257.601 30.8061 258 30.8061C258.399 30.8061 261 28.24 261 27.9029C261 27.5661 258.399 25 258 25C257.601 25 255 27.5661 255 27.9029Z" fill="#FFC729"/>
<path fillRule="evenodd" clipRule="evenodd" d="M288 321.838C288 322.4 292.334 326.677 293 326.677C293.666 326.677 298 322.4 298 321.838C298 321.277 293.666 317 293 317C292.334 317 288 321.277 288 321.838Z" fill="#EC9FFF"/>
</svg>
