<svg width="32" height="32" viewBox="0 0 32 32" fill="none" xmlns="http://www.w3.org/2000/svg">
<path fill-rule="evenodd" clip-rule="evenodd" d="M26.6667 12H5.33334V10.6667C5.33334 9.932 5.93067 9.33333 6.66667 9.33333H25.3333C26.0693 9.33333 26.6667 9.932 26.6667 10.6667V12ZM22.6667 20H20C19.2667 20 18.6667 19.4 18.6667 18.6667C18.6667 17.9333 19.2667 17.3333 20 17.3333H22.6667C23.4 17.3333 24 17.9333 24 18.6667C24 19.4 23.4 20 22.6667 20ZM14.6667 20H9.33334C8.6 20 8 19.4 8 18.6667C8 17.9333 8.6 17.3333 9.33334 17.3333H14.6667C15.4 17.3333 16 17.9333 16 18.6667C16 19.4 15.4 20 14.6667 20ZM25.3333 6.66667H6.66667C4.46134 6.66667 2.66667 8.46133 2.66667 10.6667V21.3333C2.66667 23.5387 4.46134 25.3333 6.66667 25.3333H25.3333C27.5387 25.3333 29.3333 23.5387 29.3333 21.3333V10.6667C29.3333 8.46133 27.5387 6.66667 25.3333 6.66667Z" fill="url(#paint0_linear_1_222)"/>
<mask id="mask0_1_222" style="mask-type:alpha" maskUnits="userSpaceOnUse" x="2" y="6" width="28" height="20">
<path fill-rule="evenodd" clip-rule="evenodd" d="M26.6667 12H5.33334V10.6667C5.33334 9.932 5.93067 9.33333 6.66667 9.33333H25.3333C26.0693 9.33333 26.6667 9.932 26.6667 10.6667V12ZM22.6667 20H20C19.2667 20 18.6667 19.4 18.6667 18.6667C18.6667 17.9333 19.2667 17.3333 20 17.3333H22.6667C23.4 17.3333 24 17.9333 24 18.6667C24 19.4 23.4 20 22.6667 20ZM14.6667 20H9.33334C8.6 20 8 19.4 8 18.6667C8 17.9333 8.6 17.3333 9.33334 17.3333H14.6667C15.4 17.3333 16 17.9333 16 18.6667C16 19.4 15.4 20 14.6667 20ZM25.3333 6.66667H6.66667C4.46134 6.66667 2.66667 8.46133 2.66667 10.6667V21.3333C2.66667 23.5387 4.46134 25.3333 6.66667 25.3333H25.3333C27.5387 25.3333 29.3333 23.5387 29.3333 21.3333V10.6667C29.3333 8.46133 27.5387 6.66667 25.3333 6.66667Z" fill="white"/>
</mask>
<g mask="url(#mask0_1_222)">
</g>
<defs>
<linearGradient id="paint0_linear_1_222" x1="29.3333" y1="6.66667" x2="-0.245834" y2="16.9806" gradientUnits="userSpaceOnUse">
<stop stop-color="#1C94F4"/>
<stop offset="1" stop-color="#1273EA"/>
</linearGradient>
</defs>
</svg>
