<svg width="32" height="32" viewBox="0 0 32 32" fill="none" xmlns="http://www.w3.org/2000/svg">
<path d="M27.3225 4.69838C26.7222 4.08232 25.8338 3.8528 25.0055 4.0944L5.6896 9.71143C4.81564 9.95423 4.19618 10.6512 4.02932 11.5367C3.85885 12.4378 4.45429 13.5817 5.23221 14.0601L11.2719 17.7722C11.8913 18.1527 12.6909 18.0573 13.2035 17.5402L20.1195 10.5812C20.4676 10.2188 21.0439 10.2188 21.392 10.5812C21.7402 10.9315 21.7402 11.4992 21.392 11.8616L14.464 18.8219C13.9502 19.3377 13.8541 20.141 14.2323 20.7643L17.9226 26.8645C18.3548 27.5893 19.0991 28 19.9154 28C20.0115 28 20.1195 28 20.2155 27.9879C21.1519 27.8671 21.8962 27.2269 22.1723 26.3209L27.8987 7.02975C28.1508 6.20833 27.9227 5.31444 27.3225 4.69838Z" fill="url(#paint0_linear_1_214)"/>
<defs>
<linearGradient id="paint0_linear_1_214" x1="28" y1="4" x2="-0.179176" y2="10.8781" gradientUnits="userSpaceOnUse">
<stop stop-color="#1C94F4"/>
<stop offset="1" stop-color="#1273EA"/>
</linearGradient>
</defs>
</svg>
